<svg xmlns="http://www.w3.org/2000/svg" width="980" height="560" viewBox="0 0 980 560" role="img" aria-label="Vision-EAN Training Trajectory">
<style>
.bg{fill:#fbfbfd} .title{font:700 24px Inter,Arial,sans-serif;fill:#111} .sub{font:400 13px Inter,Arial,sans-serif;fill:#555} .lab{font:600 12px Inter,Arial,sans-serif;fill:#222} .tick{font:11px Inter,Arial,sans-serif;fill:#666} .small{font:10px Inter,Arial,sans-serif;fill:#666} .foot{font:10px Inter,Arial,sans-serif;fill:#777} .grid{stroke:#d8d8df;stroke-width:1} .axis{stroke:#222;stroke-width:1.4} .card{fill:#fff;stroke:#d9d9e3;stroke-width:1.2;rx:16}
</style>
<rect class="bg" width="980" height="560"/>
<text x="40" y="42" class="title">Vision-EAN Training Trajectory</text>
<text x="40" y="64" class="sub">Camelyon17-WILDS full split, 3 epochs, CUDA, compact CNN visual encoder.</text><rect x="70" y="70" width="930" height="405" class="card"/><line x1="90" y1="100.0" x2="770" y2="100.0" class="grid"/><line x1="90" y1="166.0" x2="770" y2="166.0" class="grid"/><line x1="90" y1="232.0" x2="770" y2="232.0" class="grid"/><line x1="90" y1="298.0" x2="770" y2="298.0" class="grid"/><line x1="90" y1="364.0" x2="770" y2="364.0" class="grid"/><line x1="90" y1="430.0" x2="770" y2="430.0" class="grid"/><line x1="90.0" y1="100" x2="90.0" y2="430" class="grid"/><text x="90.0" y="452" text-anchor="middle" class="tick">E0</text><line x1="430.0" y1="100" x2="430.0" y2="430" class="grid"/><text x="430.0" y="452" text-anchor="middle" class="tick">E1</text><line x1="770.0" y1="100" x2="770.0" y2="430" class="grid"/><text x="770.0" y="452" text-anchor="middle" class="tick">E2</text><line x1="90" y1="430" x2="770" y2="430" class="axis"/><line x1="90" y1="100" x2="90" y2="430" class="axis"/><polyline points="90.0,144.9 430.0,124.9 770.0,121.0" fill="none" stroke="#0a84ff" stroke-width="3" stroke-linecap="round" stroke-linejoin="round"/><circle cx="90.0" cy="144.9" r="4.2" fill="#0a84ff"/><circle cx="430.0" cy="124.9" r="4.2" fill="#0a84ff"/><circle cx="770.0" cy="121.0" r="4.2" fill="#0a84ff"/><polyline points="90.0,124.5 430.0,123.1 770.0,116.7" fill="none" stroke="#34c759" stroke-width="3" stroke-linecap="round" stroke-linejoin="round"/><circle cx="90.0" cy="124.5" r="4.2" fill="#34c759"/><circle cx="430.0" cy="123.1" r="4.2" fill="#34c759"/><circle cx="770.0" cy="116.7" r="4.2" fill="#34c759"/><polyline points="90.0,262.7 430.0,271.6 770.0,268.4" fill="none" stroke="#ff9500" stroke-width="3" stroke-linecap="round" stroke-linejoin="round"/><circle cx="90.0" cy="262.7" r="4.2" fill="#ff9500"/><circle cx="430.0" cy="271.6" r="4.2" fill="#ff9500"/><circle cx="770.0" cy="268.4" r="4.2" fill="#ff9500"/><polyline points="90.0,331.9 430.0,366.9 770.0,368.6" fill="none" stroke="#ff3b30" stroke-width="3" stroke-linecap="round" stroke-linejoin="round"/><circle cx="90.0" cy="331.9" r="4.2" fill="#ff3b30"/><circle cx="430.0" cy="366.9" r="4.2" fill="#ff3b30"/><circle cx="770.0" cy="368.6" r="4.2" fill="#ff3b30"/><polyline points="90.0,388.7 430.0,175.5 770.0,100.0" fill="none" stroke="#111111" stroke-width="3" stroke-linecap="round" stroke-linejoin="round" stroke-dasharray="8 6"/><circle cx="90.0" cy="388.7" r="4.2" fill="#111111"/><circle cx="430.0" cy="175.5" r="4.2" fill="#111111"/><circle cx="770.0" cy="100.0" r="4.2" fill="#111111"/><rect x="800" y="104" width="16" height="4" fill="#0a84ff"/><text x="824" y="110" class="lab">Train acc</text><rect x="800" y="130" width="16" height="4" fill="#34c759"/><text x="824" y="136" class="lab">ID val</text><rect x="800" y="156" width="16" height="4" fill="#ff9500"/><text x="824" y="162" class="lab">Val</text><rect x="800" y="182" width="16" height="4" fill="#ff3b30"/><text x="824" y="188" class="lab">Test</text><rect x="800" y="208" width="16" height="4" fill="#111111"/><text x="824" y="214" class="lab">Train loss trend</text><text x="78" y="434.0" text-anchor="end" class="tick">0.6</text><text x="78" y="351.5" text-anchor="end" class="tick">0.7</text><text x="78" y="269.0" text-anchor="end" class="tick">0.8</text><text x="78" y="186.5" text-anchor="end" class="tick">0.9</text><text x="78" y="104.0" text-anchor="end" class="tick">1.0</text><text x="490.0" y="542" text-anchor="middle" class="foot">Original design: Godson Johnson. Graphics generated using ChatGPT from Vision-EAN logged metrics.</text>
</svg>
