<svg xmlns="http://www.w3.org/2000/svg" width="860" height="520" viewBox="0 0 860 520" role="img" aria-label="Vision-EAN Accuracy Map">
<style>
.bg{fill:#fbfbfd} .title{font:700 24px Inter,Arial,sans-serif;fill:#111} .sub{font:400 13px Inter,Arial,sans-serif;fill:#555} .lab{font:600 12px Inter,Arial,sans-serif;fill:#222} .tick{font:11px Inter,Arial,sans-serif;fill:#666} .small{font:10px Inter,Arial,sans-serif;fill:#666} .foot{font:10px Inter,Arial,sans-serif;fill:#777} .grid{stroke:#d8d8df;stroke-width:1} .axis{stroke:#222;stroke-width:1.4} .card{fill:#fff;stroke:#d9d9e3;stroke-width:1.2;rx:16}
</style>
<rect class="bg" width="860" height="520"/>
<text x="40" y="42" class="title">Vision-EAN Accuracy Map</text>
<text x="40" y="64" class="sub">Accuracy by epoch and split. Test accuracy peaks at epoch 0 while ID validation continues improving.</text><text x="255.0" y="95" text-anchor="middle" class="lab">Epoch 0</text><text x="405.0" y="95" text-anchor="middle" class="lab">Epoch 1</text><text x="555.0" y="95" text-anchor="middle" class="lab">Epoch 2</text><text x="162" y="151.0" text-anchor="end" class="lab">Train</text><rect x="180" y="110" width="142" height="64" rx="14" fill="rgb(83,191,75)" opacity="0.88"/><text x="251.0" y="152.0" text-anchor="middle" class="lab" fill="#111">94.6%</text><rect x="330" y="110" width="142" height="64" rx="14" fill="rgb(69,194,81)" opacity="0.88"/><text x="401.0" y="152.0" text-anchor="middle" class="lab" fill="#111">97.0%</text><rect x="480" y="110" width="142" height="64" rx="14" fill="rgb(66,195,82)" opacity="0.88"/><text x="551.0" y="152.0" text-anchor="middle" class="lab" fill="#111">97.5%</text><text x="162" y="223.0" text-anchor="end" class="lab">ID Val</text><rect x="180" y="182" width="142" height="64" rx="14" fill="rgb(69,194,81)" opacity="0.88"/><text x="251.0" y="224.0" text-anchor="middle" class="lab" fill="#111">97.0%</text><rect x="330" y="182" width="142" height="64" rx="14" fill="rgb(68,195,81)" opacity="0.88"/><text x="401.0" y="224.0" text-anchor="middle" class="lab" fill="#111">97.2%</text><rect x="480" y="182" width="142" height="64" rx="14" fill="rgb(63,196,83)" opacity="0.88"/><text x="551.0" y="224.0" text-anchor="middle" class="lab" fill="#111">98.0%</text><text x="162" y="295.0" text-anchor="end" class="lab">Val</text><rect x="180" y="254" width="142" height="64" rx="14" fill="rgb(166,170,38)" opacity="0.88"/><text x="251.0" y="296.0" text-anchor="middle" class="lab" fill="#111">80.3%</text><rect x="330" y="254" width="142" height="64" rx="14" fill="rgb(172,169,36)" opacity="0.88"/><text x="401.0" y="296.0" text-anchor="middle" class="lab" fill="#111">79.2%</text><rect x="480" y="254" width="142" height="64" rx="14" fill="rgb(170,169,37)" opacity="0.88"/><text x="551.0" y="296.0" text-anchor="middle" class="lab" fill="#111">79.6%</text><text x="162" y="367.0" text-anchor="end" class="lab">Test</text><rect x="180" y="326" width="142" height="64" rx="14" fill="rgb(215,158,17)" opacity="0.88"/><text x="251.0" y="368.0" text-anchor="middle" class="lab" fill="#111">71.9%</text><rect x="330" y="326" width="142" height="64" rx="14" fill="rgb(239,152,6)" opacity="0.88"/><text x="401.0" y="368.0" text-anchor="middle" class="lab" fill="#111">67.6%</text><rect x="480" y="326" width="142" height="64" rx="14" fill="rgb(240,152,6)" opacity="0.88"/><text x="551.0" y="368.0" text-anchor="middle" class="lab" fill="#111">67.4%</text><text x="430.0" y="502" text-anchor="middle" class="foot">Original design: Godson Johnson. Graphics generated using ChatGPT from Vision-EAN logged metrics.</text>
</svg>
