<svg xmlns="http://www.w3.org/2000/svg" width="920" height="520" viewBox="0 0 920 520" role="img" aria-label="Vision-EAN Concept Evolution Events">
<style>
.bg{fill:#fbfbfd} .title{font:700 24px Inter,Arial,sans-serif;fill:#111} .sub{font:400 13px Inter,Arial,sans-serif;fill:#555} .lab{font:600 12px Inter,Arial,sans-serif;fill:#222} .tick{font:11px Inter,Arial,sans-serif;fill:#666} .small{font:10px Inter,Arial,sans-serif;fill:#666} .foot{font:10px Inter,Arial,sans-serif;fill:#777} .grid{stroke:#d8d8df;stroke-width:1} .axis{stroke:#222;stroke-width:1.4} .card{fill:#fff;stroke:#d9d9e3;stroke-width:1.2;rx:16}
</style>
<rect class="bg" width="920" height="520"/>
<text x="40" y="42" class="title">Vision-EAN Concept Evolution Events</text>
<text x="40" y="64" class="sub">Cumulative structural events from the full Camelyon17-WILDS run.</text><line x1="100" y1="100.0" x2="720" y2="100.0" class="grid"/><line x1="100" y1="162.0" x2="720" y2="162.0" class="grid"/><line x1="100" y1="224.0" x2="720" y2="224.0" class="grid"/><line x1="100" y1="286.0" x2="720" y2="286.0" class="grid"/><line x1="100" y1="348.0" x2="720" y2="348.0" class="grid"/><line x1="100" y1="410.0" x2="720" y2="410.0" class="grid"/><line x1="100" y1="410" x2="720" y2="410" class="axis"/><line x1="100" y1="100" x2="100" y2="410" class="axis"/><polyline points="100.0,317.9 410.0,179.8 720.0,109.2" fill="none" stroke="#0a84ff" stroke-width="3" stroke-linecap="round" stroke-linejoin="round"/><circle cx="100.0" cy="317.9" r="4.2" fill="#0a84ff"/><circle cx="410.0" cy="179.8" r="4.2" fill="#0a84ff"/><circle cx="720.0" cy="109.2" r="4.2" fill="#0a84ff"/><polyline points="100.0,308.7 410.0,170.6 720.0,100.0" fill="none" stroke="#ff9500" stroke-width="3" stroke-linecap="round" stroke-linejoin="round"/><circle cx="100.0" cy="308.7" r="4.2" fill="#ff9500"/><circle cx="410.0" cy="170.6" r="4.2" fill="#ff9500"/><circle cx="720.0" cy="100.0" r="4.2" fill="#ff9500"/><polyline points="100.0,406.9 410.0,406.9 720.0,406.9" fill="none" stroke="#ff3b30" stroke-width="3" stroke-linecap="round" stroke-linejoin="round"/><circle cx="100.0" cy="406.9" r="4.2" fill="#ff3b30"/><circle cx="410.0" cy="406.9" r="4.2" fill="#ff3b30"/><circle cx="720.0" cy="406.9" r="4.2" fill="#ff3b30"/><polyline points="100.0,410.0 410.0,410.0 720.0,410.0" fill="none" stroke="#8e8e93" stroke-width="3" stroke-linecap="round" stroke-linejoin="round"/><circle cx="100.0" cy="410.0" r="4.2" fill="#8e8e93"/><circle cx="410.0" cy="410.0" r="4.2" fill="#8e8e93"/><circle cx="720.0" cy="410.0" r="4.2" fill="#8e8e93"/><text x="100.0" y="432" text-anchor="middle" class="tick">E0</text><text x="410.0" y="432" text-anchor="middle" class="tick">E1</text><text x="720.0" y="432" text-anchor="middle" class="tick">E2</text><text x="88" y="414.0" text-anchor="end" class="tick">0</text><text x="88" y="352.0" text-anchor="end" class="tick">20</text><text x="88" y="290.0" text-anchor="end" class="tick">40</text><text x="88" y="228.0" text-anchor="end" class="tick">61</text><text x="88" y="166.0" text-anchor="end" class="tick">81</text><text x="88" y="104.0" text-anchor="end" class="tick">101</text><rect x="760" y="108" width="18" height="5" fill="#0a84ff"/><text x="788" y="114" class="lab">Born</text><rect x="760" y="136" width="18" height="5" fill="#ff9500"/><text x="788" y="142" class="lab">Merged</text><rect x="760" y="164" width="18" height="5" fill="#ff3b30"/><text x="788" y="170" class="lab">Pruned</text><rect x="760" y="192" width="18" height="5" fill="#8e8e93"/><text x="788" y="198" class="lab">Mutated</text><text x="760" y="260" class="lab">Final</text><text x="760" y="286" class="small">born: 98</text><text x="760" y="306" class="small">merged: 101</text><text x="760" y="326" class="small">pruned: 1</text><text x="460.0" y="502" text-anchor="middle" class="foot">Original design: Godson Johnson. Graphics generated using ChatGPT from Vision-EAN logged metrics.</text>
</svg>
