<svg xmlns="http://www.w3.org/2000/svg" width="860" height="500" viewBox="0 0 860 500" role="img" aria-label="Vision-EAN Concept Entropy Map">
<style>
.bg{fill:#fbfbfd} .title{font:700 24px Inter,Arial,sans-serif;fill:#111} .sub{font:400 13px Inter,Arial,sans-serif;fill:#555} .lab{font:600 12px Inter,Arial,sans-serif;fill:#222} .tick{font:11px Inter,Arial,sans-serif;fill:#666} .small{font:10px Inter,Arial,sans-serif;fill:#666} .foot{font:10px Inter,Arial,sans-serif;fill:#777} .grid{stroke:#d8d8df;stroke-width:1} .axis{stroke:#222;stroke-width:1.4} .card{fill:#fff;stroke:#d9d9e3;stroke-width:1.2;rx:16}
</style>
<rect class="bg" width="860" height="500"/>
<text x="40" y="42" class="title">Vision-EAN Concept Entropy Map</text>
<text x="40" y="64" class="sub">Concept count remains stable at 4 while routing entropy changes across epochs.</text><line x1="95" y1="105.0" x2="695" y2="105.0" class="grid"/><line x1="95" y1="177.5" x2="695" y2="177.5" class="grid"/><line x1="95" y1="250.0" x2="695" y2="250.0" class="grid"/><line x1="95" y1="322.5" x2="695" y2="322.5" class="grid"/><line x1="95" y1="395.0" x2="695" y2="395.0" class="grid"/><line x1="95" y1="395" x2="695" y2="395" class="axis"/><line x1="95" y1="105" x2="95" y2="395" class="axis"/><polyline points="95.0,298.4 395.0,327.8 695.0,234.1" fill="none" stroke="#5856d6" stroke-width="3" stroke-linecap="round" stroke-linejoin="round"/><circle cx="95.0" cy="298.4" r="4.2" fill="#5856d6"/><circle cx="395.0" cy="327.8" r="4.2" fill="#5856d6"/><circle cx="695.0" cy="234.1" r="4.2" fill="#5856d6"/><text x="95.0" y="417" text-anchor="middle" class="tick">E0</text><text x="95.0" y="286.4" text-anchor="middle" class="small">0.333</text><text x="395.0" y="417" text-anchor="middle" class="tick">E1</text><text x="395.0" y="315.8" text-anchor="middle" class="small">0.232</text><text x="695.0" y="417" text-anchor="middle" class="tick">E2</text><text x="695.0" y="222.1" text-anchor="middle" class="small">0.555</text><text x="730" y="130" class="lab">Final concepts</text><text x="730" y="165" style="font:700 44px Inter,Arial;fill:#111">4</text><text x="730" y="205" class="lab">Final entropy</text><text x="730" y="238" style="font:700 34px Inter,Arial;fill:#5856d6">0.555</text><text x="430.0" y="482" text-anchor="middle" class="foot">Original design: Godson Johnson. Graphics generated using ChatGPT from Vision-EAN logged metrics.</text>
</svg>
